<?xml version="1.0" encoding="UTF-8" standalone="no"?>
<!-- Created with Inkscape (http://www.inkscape.org/) -->

<svg
   xmlns:dc="http://purl.org/dc/elements/1.1/"
   xmlns:cc="http://creativecommons.org/ns#"
   xmlns:rdf="http://www.w3.org/1999/02/22-rdf-syntax-ns#"
   xmlns:svg="http://www.w3.org/2000/svg"
   xmlns="http://www.w3.org/2000/svg"
   xmlns:sodipodi="http://sodipodi.sourceforge.net/DTD/sodipodi-0.dtd"
   xmlns:inkscape="http://www.inkscape.org/namespaces/inkscape"
   width="170mm"
   height="35mm"
   viewBox="0 0 170 35"
   version="1.1"
   id="svg8"
   inkscape:version="0.92.0 r15299"
   sodipodi:docname="logomarca-web-worker.svg">
  <defs
     id="defs2" />
  <sodipodi:namedview
     id="base"
     pagecolor="#ffffff"
     bordercolor="#666666"
     borderopacity="1.0"
     inkscape:pageopacity="0.0"
     inkscape:pageshadow="2"
     inkscape:zoom="0.80966057"
     inkscape:cx="92.774092"
     inkscape:cy="57.123825"
     inkscape:document-units="mm"
     inkscape:current-layer="layer1"
     showgrid="false"
     inkscape:window-width="1366"
     inkscape:window-height="705"
     inkscape:window-x="-8"
     inkscape:window-y="-8"
     inkscape:window-maximized="1" />
  <metadata
     id="metadata5">
    <rdf:RDF>
      <cc:Work
         rdf:about="">
        <dc:format>image/svg+xml</dc:format>
        <dc:type
           rdf:resource="http://purl.org/dc/dcmitype/StillImage" />
        <dc:title />
      </cc:Work>
    </rdf:RDF>
  </metadata>
  <g
     inkscape:label="Camada 1"
     inkscape:groupmode="layer"
     id="layer1"
     transform="translate(-15.477839,-86.322771)">
    <text
       xml:space="preserve"
       style="font-style:normal;font-variant:normal;font-weight:normal;font-stretch:normal;font-size:26.42135048px;line-height:16.51334572px;font-family:Cambria;-inkscape-font-specification:Cambria;letter-spacing:0px;word-spacing:0px;fill:#000000;fill-opacity:1;stroke:none;stroke-width:0.66053385"
       x="53.178177"
       y="112.98148"
       id="text4487"><tspan
         sodipodi:role="line"
         id="tspan4485"
         x="53.178177"
         y="112.98148"
         style="font-style:normal;font-variant:normal;font-weight:normal;font-stretch:normal;font-family:Cambria;-inkscape-font-specification:Cambria;stroke-width:0.66053385"><tspan
           style="fill:#6eada0;fill-opacity:1;stroke-width:0.66053385"
           id="tspan5639">Dev</tspan><tspan
           style="fill:#326d7f;fill-opacity:1;stroke-width:0.66053385"
           id="tspan5637">Worker</tspan></tspan></text>
    <g
       id="g5633"
       transform="matrix(0.98282417,0,0,0.98282417,-45.276597,-52.733618)"
       style="fill:#326d7f;fill-opacity:1">
      <g
         transform="matrix(0.35277777,0,0,-0.35277777,76.150193,162.8245)"
         id="g4775"
         style="fill:#326d7f;fill-opacity:1">
        <path
           inkscape:connector-curvature="0"
           id="path4777"
           style="fill:#326d7f;fill-opacity:1;fill-rule:nonzero;stroke:none"
           d="m 0,0 c -0.666,0 -1.3,-0.122 -1.897,-0.318 0.34,-0.494 0.54,-1.091 0.54,-1.741 0,-1.707 -1.386,-3.092 -3.093,-3.092 -0.425,0 -0.832,0.085 -1.199,0.241 -0.005,-0.079 -0.027,-0.157 -0.027,-0.241 0,-2.844 2.54,-5.151 5.676,-5.151 3.136,0 5.678,2.307 5.678,5.151 C 5.678,-2.305 3.136,0 0,0" />
      </g>
      <g
         transform="matrix(0.35277777,0,0,-0.35277777,85.543377,164.6418)"
         id="g4783"
         style="fill:#326d7f;fill-opacity:1">
        <path
           inkscape:connector-curvature="0"
           id="path4785"
           style="fill:#326d7f;fill-opacity:1;fill-rule:nonzero;stroke:none"
           d="m 0,0 c -1.707,0 -3.093,1.386 -3.093,3.093 0,0.649 0.2,1.246 0.541,1.74 -0.598,0.196 -1.231,0.318 -1.898,0.318 -3.136,0 -5.677,-2.304 -5.677,-5.151 0,-2.844 2.541,-5.15 5.677,-5.15 3.136,0 5.676,2.306 5.676,5.15 0,0.084 -0.022,0.162 -0.027,0.241 C 0.833,0.085 0.425,0 0,0" />
      </g>
      <g
         transform="matrix(0.35277777,0,0,-0.35277777,80.13495,174.24635)"
         id="g4791"
         style="fill:#326d7f;fill-opacity:1">
        <path
           inkscape:connector-curvature="0"
           id="path4793"
           style="fill:#326d7f;fill-opacity:1;fill-rule:nonzero;stroke:none"
           d="M 0,0 C -0.016,0 -0.031,0.001 -0.047,0.001 -0.062,0.001 -0.078,0 -0.094,0 c -17.094,0 -30.484,15.602 -30.484,35.515 0,0.962 0.048,1.913 0.109,2.855 h 30.422 30.422 c 0.062,-0.942 0.109,-1.893 0.109,-2.855 C 30.484,15.602 17.094,0 0,0 m 38.682,47.883 c 0,1.471 -0.628,2.051 -2.049,2.051 h -3.192 c -0.1,1.206 -0.224,2.432 -0.224,3.678 0,11.36 -7.546,21.421 -16.399,27.632 -0.004,-0.254 0.005,-0.506 -0.006,-0.757 -0.042,-0.877 -0.082,-1.756 -0.124,-2.629 -0.061,-0.871 -0.18,-1.737 -0.272,-2.596 -0.153,-1.72 -0.493,-3.397 -0.797,-5.01 -0.322,-1.614 -0.736,-3.15 -1.142,-4.599 -0.456,-1.442 -0.882,-2.798 -1.38,-4.022 -0.936,-2.458 -1.969,-4.418 -2.75,-5.749 -0.776,-1.335 -1.336,-2.04 -1.336,-2.04 0,0 0.012,0.223 0.033,0.637 0.037,0.408 0.037,1.019 0.107,1.771 0.091,1.493 0.221,3.628 0.38,6.188 0.18,2.526 0.354,5.449 0.546,8.553 0.077,1.552 0.161,3.154 0.244,4.78 0.04,0.813 0.081,1.629 0.124,2.449 0.023,0.821 0.042,1.646 0.064,2.469 0.096,1.398 0.088,2.793 0.117,4.176 -3.724,1.763 -7.415,2.773 -10.673,2.882 -3.258,-0.109 -6.949,-1.119 -10.672,-2.882 0.029,-1.383 0.02,-2.778 0.116,-4.176 0.022,-0.823 0.041,-1.648 0.064,-2.469 0.043,-0.82 0.084,-1.636 0.124,-2.449 0.083,-1.626 0.167,-3.228 0.245,-4.78 0.191,-3.104 0.365,-6.027 0.545,-8.553 0.159,-2.56 0.29,-4.695 0.38,-6.188 0.071,-0.752 0.071,-1.363 0.107,-1.771 0.021,-0.414 0.033,-0.637 0.033,-0.637 0,0 -0.56,0.705 -1.335,2.04 -0.782,1.331 -1.814,3.291 -2.75,5.749 -0.499,1.224 -0.925,2.58 -1.38,4.022 -0.407,1.449 -0.821,2.985 -1.142,4.599 -0.305,1.613 -0.645,3.29 -0.797,5.01 -0.093,0.859 -0.212,1.725 -0.273,2.596 -0.042,0.873 -0.082,1.752 -0.123,2.629 -0.011,0.251 -0.003,0.503 -0.007,0.757 -8.853,-6.211 -16.399,-16.272 -16.399,-27.632 0,-1.246 -0.124,-2.472 -0.224,-3.678 h -3.192 c -1.421,0 -2.048,-0.58 -2.048,-2.051 V 38.37 h 4.514 c -0.058,-0.945 -0.1,-1.893 -0.1,-2.855 0,-22.036 15.051,-39.294 34.267,-39.294 0.016,0 0.032,10e-4 0.047,10e-4 0.016,0 0.031,-10e-4 0.047,-10e-4 19.216,0 34.267,17.258 34.267,39.294 0,0.962 -0.041,1.91 -0.099,2.855 h 4.514 z" />
      </g>
    </g>
  </g>
</svg>
